<?xml version="1.0" encoding="UTF-8"?>
<svg width="3840" height="2160" version="1.1" xmlns="http://www.w3.org/2000/svg">
<g transform="translate(0,1107.6378)">
<rect y="-1107.6378" width="3840" height="2160" color="#000000" fill="#344151"/>
</g>
<g>
<path d="m1435.1268 784.35921 484.8732 728.90029-290.3917-753.186z" fill="#d8e6f7"/>
<path d="m1614.9063 646.74048-179.7761 137.61194h161.6231l54.9639-73.50582z" fill="#eef4fb"/>
<path d="m1596.7512 784.3592 323.2488 728.9003-101.0152-783.44854z" fill="#a1c3eb"/>
<path d="m1991.4286 722.93063-233.053 61.42859 161.6244 728.90028z" fill="#b8d2f0"/>
<path d="m1920 784.35922v728.90028l244.4815-790.32885z" fill="#89b4e6"/>
<path d="m2081.6244 784.35922 245.9102-57.14286-407.5346 786.04314z" fill="#9ec1eb"/>
<path d="m2243.2489 784.35922 67.4654-32.14286 94.1589 32.14286-484.8732 728.90028z" fill="#71a4e1"/>
<path d="m1614.9063 646.7405h203.3955l-41.5982 60.24068-20.6013 29.83382-159.3511 47.54423z" fill="#86b0e3"/>
<path d="m1818.3018 646.7405-221.5485 137.61194h161.6232l60.6083-54.54148z" fill="#acc9ec"/>
<path d="m1818.3018 646.7405-59.9253 137.61194h161.6231l4e-4 7e-3 7.5482-93.25213z" fill="#c9def4"/>
<path d="m1818.3018 646.7405 101.6982 137.61894 92.283-37.51917 9.4143-100.09977z" fill="#d3e1f7"/>
<path d="m1919.9996 784.35244h161.6231l15.0839-48.94625-75.0093-88.66569z" fill="#9cc0ea"/>
<path d="m2021.6973 646.7405 59.9254 137.61194h161.6231l-76.3679-86.59925z" fill="#abc9ed"/>
<path d="m2021.6973 646.7405 221.5485 137.61194 33.0673-40.64426-51.2202-96.96768z" fill="#8ab9ed"/>
<path d="m2225.0929 646.7405 18.1529 137.61194h161.6232z" fill="#80aee4"/>
</g>
<g display="none">
<path d="m1818.3018 646.7405-221.5485 137.61194h161.6232z" display="inline" fill="#acc9ec"/>
<path d="m1818.3018 646.7405-59.9253 137.61194h161.6231l4e-4 7e-3z" display="inline" fill="#c9def4"/>
<path d="m1919.9996 784.35244h161.6231l-59.9254-137.61194z" display="inline" fill="#9cc0ea"/>
<path d="m2021.6973 646.7405 59.9254 137.61194h161.6231z" display="inline" fill="#abc9ed"/>
<path d="m2225.0929 646.7405 18.1529 137.61194h161.6232z" display="inline" fill="#80aee4"/>
<path d="m1614.9063 646.7405h203.3955l-221.5506 137.61873z" display="inline" fill="#86b0e3"/>
<path d="M 1818.3018,646.7405 1920,784.35944 2021.6973,646.7405 Z" display="inline" fill="#d3e1f7"/>
<path d="m2021.6973 646.7405 221.5485 137.61194-18.1529-137.61194z" display="inline" fill="#8ab9ed"/>
</g>
</svg>
