<?xml version="1.0" encoding="UTF-8"?>
<svg width="3840" height="2160" version="1.1" xmlns="http://www.w3.org/2000/svg">
<g>
<rect width="3840" height="2160" color="#000000" fill="#5e3b1f"/>
</g>
<g>
<path d="m1721.2 310.79c-25.826 0.1943-52.354 5.5953-78.437 18.729-106.96 53.857-143.97 146.08-155.51 186.81-42.306-1.6136-141.45 5.0873-225.73 90.169-21.214 21.417-34.745 45.858-42.832 71.211-31.724 99.46 20.285 212.95 20.285 212.95s-108.78 61.252-141.57 160.36c-0.2614 0.7894-0.5351 1.598-0.7865 2.3922-7.796 24.622-10.854 51.522-6.423 80.387 18.168 118.37 94.436 182.06 129.61 205.62l700.15-227.46h0.017 0.017l0.033-0.017-0.017-0.016 432.69-595.59c-11.538-40.734-48.539-132.95-155.5-186.81-26.924-13.557-54.35-18.872-80.96-18.728-104.4 0.5639-196.27 85.09-196.27 85.09s-91.87-84.527-196.26-85.09c-0.8315 0-1.6737-0.012-2.5074 0zm198.82 801.15 700.22 227.48c35.174-23.561 111.44-87.237 129.61-205.6 4.5733-29.796 1.1504-57.532-7.2096-82.796-32.796-99.112-141.57-160.36-141.57-160.36s51.994-113.49 20.269-212.95c-0.2523-0.7923-0.5065-1.6018-0.7703-2.3922-8.1655-24.502-21.494-48.055-42.045-68.802-84.273-85.082-183.42-91.795-225.73-90.186l-432.77 595.61zl0.033 736.23c33.278 26.172 117.42 79.04 235.61 59.741 29.751-4.8578 55.059-16.686 76.504-32.443 84.126-61.818 108.77-184.19 108.77-184.19s124.01 14.372 208.8-46.535c0.6752-0.485 1.3448-0.98 2.0149-1.4747 20.78-15.337 39.068-35.293 52.45-61.249 54.876-106.44 30.613-202.8 16.008-242.54l-700.18-227.54zm-0.049 0.033-700.2 227.54c-14.608 39.737-38.867 136.1 16.009 242.54 13.813 26.793 32.868 47.198 54.482 62.724 84.789 60.906 208.8 46.535 208.8 46.535s24.64 122.37 108.77 184.19c0.6701 0.4927 1.3538 0.9901 2.0319 1.4749 21.008 15.023 45.634 26.246 74.455 30.952 118.19 19.298 202.34-33.556 235.62-59.725l0.033-736.23z" fill-opacity=".15686"/>
<path d="m1721.2 279.36c-25.826 0.19428-52.354 5.5953-78.437 18.729-106.96 53.857-143.97 146.08-155.51 186.81-42.306-1.6136-141.45 5.0873-225.73 90.169-21.214 21.417-34.745 45.859-42.832 71.211-31.724 99.46 20.285 212.95 20.285 212.95s-108.78 61.253-141.57 160.36c-0.2614 0.7894-0.5351 1.598-0.7865 2.3922-7.796 24.622-10.854 51.522-6.423 80.387 18.168 118.37 94.436 182.06 129.61 205.62l700.15-227.46h0.017 0.017l0.033-0.017-0.017-0.016 432.69-595.59c-11.538-40.734-48.539-132.95-155.5-186.81-26.924-13.557-54.35-18.872-80.96-18.728-104.4 0.56388-196.27 85.09-196.27 85.09s-91.87-84.527-196.26-85.09c-0.8315 0-1.6737-0.0121-2.5074 0zm198.82 801.15 700.22 227.48c35.174-23.561 111.44-87.238 129.61-205.6 4.5733-29.796 1.1504-57.532-7.2096-82.796-32.796-99.112-141.57-160.36-141.57-160.36s51.994-113.49 20.269-212.95c-0.2523-0.79232-0.5065-1.6019-0.7703-2.3923-8.1655-24.502-21.494-48.055-42.045-68.802-84.273-85.082-183.42-91.795-225.73-90.186l-432.77 595.61zl0.033 736.23c33.278 26.172 117.42 79.04 235.61 59.741 29.751-4.8578 55.059-16.686 76.504-32.443 84.126-61.818 108.77-184.19 108.77-184.19s124.01 14.372 208.8-46.535c0.6752-0.485 1.3448-0.98 2.0149-1.4747 20.78-15.337 39.068-35.293 52.45-61.249 54.876-106.44 30.613-202.8 16.008-242.54l-700.18-227.54zm-0.049 0.033-700.2 227.54c-14.608 39.737-38.867 136.1 16.009 242.54 13.813 26.793 32.868 47.198 54.482 62.724 84.789 60.906 208.8 46.535 208.8 46.535s24.64 122.37 108.77 184.19c0.6701 0.4927 1.3538 0.9901 2.0319 1.4749 21.008 15.023 45.634 26.246 74.455 30.952 118.19 19.298 202.34-33.556 235.62-59.725l0.033-736.23z" fill="#dba14e" fill-opacity=".99859"/>
<g transform="matrix(.52433 0 0 .52433 -1214.1 788.4)">
<g transform="translate(251.43 -1280)">
<path d="m5346.6 309.16c-49.255 0.37044-99.849 10.671-149.59 35.719-203.99 102.71-274.58 278.59-296.59 356.28l825.28 1136 286.34-861.03-286.34-504.69s-175.21-161.21-374.31-162.28c-1.5859-9e-3 -3.1923-0.012-4.7812 0z" fill="#d9a954"/>
<path d="m6100 309.16c-199.1 1.0756-374.31 162.28-374.31 162.28v1365.7l825.28-1136c-22.006-77.687-92.572-253.57-296.56-356.28-51.349-25.856-103.65-35.993-154.41-35.719z" fill="#dd9948"/>
<path d="m5452.4 976.16-114.98 158.37 114.98 158.41 114.98-158.41-114.98-158.37zm136.66 188.28-114.98 158.38 114.98 158.38 114.98-158.38-114.98-158.38z" fill="#b7621e"/>
<path d="m5999.1 976.12-114.98 158.38 114.98 158.38 114.98-158.38-114.98-158.38z" fill="#ad5211"/>
<path d="m5589.1 787.84-114.98 158.41 114.98 158.38 114.98-158.38-114.98-158.41z" fill="#b7621e"/>
<path d="m6135.7 787.81-114.98 158.41 114.98 158.38 114.98-158.38-114.98-158.41z" fill="#ad5211"/>
<path d="m5179 599.59-114.98 158.41 114.98 158.38 114.98-158.38-114.98-158.41zm136.66 188.28-114.98 158.38 114.98 158.41 114.98-158.41-114.98-158.38z" fill="#b7621e"/>
<path d="m6272.4 599.53-114.98 158.38 114.98 158.41 114.98-158.41-114.98-158.38z" fill="#ad5211"/>
<path d="m5885.7 443.47c-36.47 20.497-69.433 45.624-98.27 71l-40.066 55.188 114.98 158.38 114.98-158.38-91.617-126.19zm113.34 156.09-114.98 158.38 114.98 158.38 114.98-158.38-114.98-158.38z" fill="#ad5211"/>
<path d="m5315.7 411.31-114.98 158.38 114.98 158.38 114.98-158.38-114.98-158.38zm136.66 188.25-114.98 158.41 114.98 158.38 114.98-158.38-114.98-158.41z" fill="#b7621e"/>
<path d="m6048.1 396.56c-46.701 0.46969-90.5 12.416-130.7 30.781l81.623 112.41 101.01-139.12c-6.1144-0.9423-12.321-1.7581-18.616-2.4375-9.7057-1.0475-19.31-1.5693-28.789-1.625-1.5125-9e-3 -3.0281-0.0152-4.5346 0zm87.62 14.688-114.98 158.41 114.98 158.38 114.98-158.38-114.98-158.41z" fill="#ad5211"/>
<path d="m5398.8 396.56c-9.4783 0.0558-19.083 0.57752-28.789 1.625-6.3151 0.68158-12.542 1.4914-18.675 2.4375l101.01 139.16 81.623-112.44c-41.474-18.942-86.795-31.066-135.17-30.781zm166.89 46.906-91.617 126.22 114.98 158.38 114.98-158.38-40.125-55.312c-28.819-25.356-61.773-50.427-98.21-70.906z" fill="#b7621e"/>
<path d="m5725.7 1352.7-114.98 158.41 114.98 158.38 34.095-175.18z" fill="#b7621e"/>
<path d="m5725.7 1352.7v316.78l114.98-158.38-114.98-158.41z" fill="#ad5211"/>
<path d="m5725.7 976.12-114.98 158.38 114.98 158.41 40.914-165.76z" fill="#b7621e"/>
<path d="m5725.7 976.12v316.78l114.98-158.41-114.98-158.38zm136.66 188.28-114.98 158.38 114.98 158.41 114.98-158.41-114.98-158.38z" fill="#ad5211"/>
<path d="m5725.7 599.56-114.98 158.38 114.98 158.41 43.641-160.63z" fill="#b7621e"/>
<path d="m5725.7 599.56v316.78l114.98-158.41-114.98-158.38zm136.66 188.28-114.98 158.38 114.98 158.38 114.98-158.38-114.98-158.38z" fill="#ad5211"/>
</g>
<g transform="matrix(.30902 -.95106 .95106 .30902 2460.7 5434.9)">
<path d="m5346.6 309.16c-49.255 0.37044-99.849 10.671-149.59 35.719-203.99 102.71-274.58 278.59-296.59 356.28l825.28 1136 286.34-861.03-286.34-504.69s-175.21-161.21-374.31-162.28c-1.5859-9e-3 -3.1923-0.012-4.7812 0z" fill="#d9a954"/>
<path d="m6100 309.16c-199.1 1.0756-374.31 162.28-374.31 162.28v1365.7l825.28-1136c-22.006-77.687-92.572-253.57-296.56-356.28-51.349-25.856-103.65-35.993-154.41-35.719z" fill="#dd9948"/>
<path d="m5452.4 976.16-114.98 158.37 114.98 158.41 114.98-158.41-114.98-158.37zm136.66 188.28-114.98 158.38 114.98 158.38 114.98-158.38-114.98-158.38z" fill="#b7621e"/>
<path d="m5999.1 976.12-114.98 158.38 114.98 158.38 114.98-158.38-114.98-158.38z" fill="#ad5211"/>
<path d="m5589.1 787.84-114.98 158.41 114.98 158.38 114.98-158.38-114.98-158.41z" fill="#b7621e"/>
<path d="m6135.7 787.81-114.98 158.41 114.98 158.38 114.98-158.38-114.98-158.41z" fill="#ad5211"/>
<path d="m5179 599.59-114.98 158.41 114.98 158.38 114.98-158.38-114.98-158.41zm136.66 188.28-114.98 158.38 114.98 158.41 114.98-158.41-114.98-158.38z" fill="#b7621e"/>
<path d="m6272.4 599.53-114.98 158.38 114.98 158.41 114.98-158.41-114.98-158.38z" fill="#ad5211"/>
<path d="m5885.7 443.47c-36.47 20.497-69.433 45.624-98.27 71l-40.066 55.188 114.98 158.38 114.98-158.38-91.617-126.19zm113.34 156.09-114.98 158.38 114.98 158.38 114.98-158.38-114.98-158.38z" fill="#ad5211"/>
<path d="m5315.7 411.31-114.98 158.38 114.98 158.38 114.98-158.38-114.98-158.38zm136.66 188.25-114.98 158.41 114.98 158.38 114.98-158.38-114.98-158.41z" fill="#b7621e"/>
<path d="m6048.1 396.56c-46.701 0.46969-90.5 12.416-130.7 30.781l81.623 112.41 101.01-139.12c-6.1144-0.9423-12.321-1.7581-18.616-2.4375-9.7057-1.0475-19.31-1.5693-28.789-1.625-1.5125-9e-3 -3.0281-0.0152-4.5346 0zm87.62 14.688-114.98 158.41 114.98 158.38 114.98-158.38-114.98-158.41z" fill="#ad5211"/>
<path d="m5398.8 396.56c-9.4783 0.0558-19.083 0.57752-28.789 1.625-6.3151 0.68158-12.542 1.4914-18.675 2.4375l101.01 139.16 81.623-112.44c-41.474-18.942-86.795-31.066-135.17-30.781zm166.89 46.906-91.617 126.22 114.98 158.38 114.98-158.38-40.125-55.312c-28.819-25.356-61.773-50.427-98.21-70.906z" fill="#b7621e"/>
<path d="m5725.7 1352.7-114.98 158.41 114.98 158.38 34.095-175.18z" fill="#b7621e"/>
<path d="m5725.7 1352.7v316.78l114.98-158.38-114.98-158.41z" fill="#ad5211"/>
<path d="m5725.7 976.12-114.98 158.38 114.98 158.41 40.914-165.76z" fill="#b7621e"/>
<path d="m5725.7 976.12v316.78l114.98-158.41-114.98-158.38zm136.66 188.28-114.98 158.38 114.98 158.41 114.98-158.41-114.98-158.38z" fill="#ad5211"/>
<path d="m5725.7 599.56-114.98 158.38 114.98 158.41 43.641-160.63z" fill="#b7621e"/>
<path d="m5725.7 599.56v316.78l114.98-158.41-114.98-158.38zm136.66 188.28-114.98 158.38 114.98 158.38 114.98-158.38-114.98-158.38z" fill="#ad5211"/>
</g>
<g transform="matrix(-.80902 -.58779 .58779 -.80902 9529.5 5408.9)">
<path d="m5346.6 309.16c-49.255 0.37044-99.849 10.671-149.59 35.719-203.99 102.71-274.58 278.59-296.59 356.28l825.28 1136 286.34-861.03-286.34-504.69s-175.21-161.21-374.31-162.28c-1.5859-9e-3 -3.1923-0.012-4.7812 0z" fill="#d9a954"/>
<path d="m6100 309.16c-199.1 1.0756-374.31 162.28-374.31 162.28v1365.7l825.28-1136c-22.006-77.687-92.572-253.57-296.56-356.28-51.349-25.856-103.65-35.993-154.41-35.719z" fill="#dd9948"/>
<path d="m5452.4 976.16-114.98 158.37 114.98 158.41 114.98-158.41-114.98-158.37zm136.66 188.28-114.98 158.38 114.98 158.38 114.98-158.38-114.98-158.38z" fill="#b7621e"/>
<path d="m5999.1 976.12-114.98 158.38 114.98 158.38 114.98-158.38-114.98-158.38z" fill="#ad5211"/>
<path d="m5589.1 787.84-114.98 158.41 114.98 158.38 114.98-158.38-114.98-158.41z" fill="#b7621e"/>
<path d="m6135.7 787.81-114.98 158.41 114.98 158.38 114.98-158.38-114.98-158.41z" fill="#ad5211"/>
<path d="m5179 599.59-114.98 158.41 114.98 158.38 114.98-158.38-114.98-158.41zm136.66 188.28-114.98 158.38 114.98 158.41 114.98-158.41-114.98-158.38z" fill="#b7621e"/>
<path d="m6272.4 599.53-114.98 158.38 114.98 158.41 114.98-158.41-114.98-158.38z" fill="#ad5211"/>
<path d="m5885.7 443.47c-36.47 20.497-69.433 45.624-98.27 71l-40.066 55.188 114.98 158.38 114.98-158.38-91.617-126.19zm113.34 156.09-114.98 158.38 114.98 158.38 114.98-158.38-114.98-158.38z" fill="#ad5211"/>
<path d="m5315.7 411.31-114.98 158.38 114.98 158.38 114.98-158.38-114.98-158.38zm136.66 188.25-114.98 158.41 114.98 158.38 114.98-158.38-114.98-158.41z" fill="#b7621e"/>
<path d="m6048.1 396.56c-46.701 0.46969-90.5 12.416-130.7 30.781l81.623 112.41 101.01-139.12c-6.1144-0.9423-12.321-1.7581-18.616-2.4375-9.7057-1.0475-19.31-1.5693-28.789-1.625-1.5125-9e-3 -3.0281-0.0152-4.5346 0zm87.62 14.688-114.98 158.41 114.98 158.38 114.98-158.38-114.98-158.41z" fill="#ad5211"/>
<path d="m5398.8 396.56c-9.4783 0.0558-19.083 0.57752-28.789 1.625-6.3151 0.68158-12.542 1.4914-18.675 2.4375l101.01 139.16 81.623-112.44c-41.474-18.942-86.795-31.066-135.17-30.781zm166.89 46.906-91.617 126.22 114.98 158.38 114.98-158.38-40.125-55.312c-28.819-25.356-61.773-50.427-98.21-70.906z" fill="#b7621e"/>
<path d="m5725.7 1352.7-114.98 158.41 114.98 158.38 34.095-175.18z" fill="#b7621e"/>
<path d="m5725.7 1352.7v316.78l114.98-158.38-114.98-158.41z" fill="#ad5211"/>
<path d="m5725.7 976.12-114.98 158.38 114.98 158.41 40.914-165.76z" fill="#b7621e"/>
<path d="m5725.7 976.12v316.78l114.98-158.41-114.98-158.38zm136.66 188.28-114.98 158.38 114.98 158.41 114.98-158.41-114.98-158.38z" fill="#ad5211"/>
<path d="m5725.7 599.56-114.98 158.38 114.98 158.41 43.641-160.63z" fill="#b7621e"/>
<path d="m5725.7 599.56v316.78l114.98-158.41-114.98-158.38zm136.66 188.28-114.98 158.38 114.98 158.38 114.98-158.38-114.98-158.38z" fill="#ad5211"/>
</g>
<g transform="matrix(-.80902 .58779 -.58779 -.80902 11689 -1322.1)">
<path d="m5346.6 309.16c-49.255 0.37044-99.849 10.671-149.59 35.719-203.99 102.71-274.58 278.59-296.59 356.28l825.28 1136 286.34-861.03-286.34-504.69s-175.21-161.21-374.31-162.28c-1.5859-9e-3 -3.1923-0.012-4.7812 0z" fill="#d9a954"/>
<path d="m6100 309.16c-199.1 1.0756-374.31 162.28-374.31 162.28v1365.7l825.28-1136c-22.006-77.687-92.572-253.57-296.56-356.28-51.349-25.856-103.65-35.993-154.41-35.719z" fill="#dd9948"/>
<path d="m5452.4 976.16-114.98 158.37 114.98 158.41 114.98-158.41-114.98-158.37zm136.66 188.28-114.98 158.38 114.98 158.38 114.98-158.38-114.98-158.38z" fill="#b7621e"/>
<path d="m5999.1 976.12-114.98 158.38 114.98 158.38 114.98-158.38-114.98-158.38z" fill="#ad5211"/>
<path d="m5589.1 787.84-114.98 158.41 114.98 158.38 114.98-158.38-114.98-158.41z" fill="#b7621e"/>
<path d="m6135.7 787.81-114.98 158.41 114.98 158.38 114.98-158.38-114.98-158.41z" fill="#ad5211"/>
<path d="m5179 599.59-114.98 158.41 114.98 158.38 114.98-158.38-114.98-158.41zm136.66 188.28-114.98 158.38 114.98 158.41 114.98-158.41-114.98-158.38z" fill="#b7621e"/>
<path d="m6272.4 599.53-114.98 158.38 114.98 158.41 114.98-158.41-114.98-158.38z" fill="#ad5211"/>
<path d="m5885.7 443.47c-36.47 20.497-69.433 45.624-98.27 71l-40.066 55.188 114.98 158.38 114.98-158.38-91.617-126.19zm113.34 156.09-114.98 158.38 114.98 158.38 114.98-158.38-114.98-158.38z" fill="#ad5211"/>
<path d="m5315.7 411.31-114.98 158.38 114.98 158.38 114.98-158.38-114.98-158.38zm136.66 188.25-114.98 158.41 114.98 158.38 114.98-158.38-114.98-158.41z" fill="#b7621e"/>
<path d="m6048.1 396.56c-46.701 0.46969-90.5 12.416-130.7 30.781l81.623 112.41 101.01-139.12c-6.1144-0.9423-12.321-1.7581-18.616-2.4375-9.7057-1.0475-19.31-1.5693-28.789-1.625-1.5125-9e-3 -3.0281-0.0152-4.5346 0zm87.62 14.688-114.98 158.41 114.98 158.38 114.98-158.38-114.98-158.41z" fill="#ad5211"/>
<path d="m5398.8 396.56c-9.4783 0.0558-19.083 0.57752-28.789 1.625-6.3151 0.68158-12.542 1.4914-18.675 2.4375l101.01 139.16 81.623-112.44c-41.474-18.942-86.795-31.066-135.17-30.781zm166.89 46.906-91.617 126.22 114.98 158.38 114.98-158.38-40.125-55.312c-28.819-25.356-61.773-50.427-98.21-70.906z" fill="#b7621e"/>
<path d="m5725.7 1352.7-114.98 158.41 114.98 158.38 34.095-175.18z" fill="#b7621e"/>
<path d="m5725.7 1352.7v316.78l114.98-158.38-114.98-158.41z" fill="#ad5211"/>
<path d="m5725.7 976.12-114.98 158.38 114.98 158.41 40.914-165.76z" fill="#b7621e"/>
<path d="m5725.7 976.12v316.78l114.98-158.41-114.98-158.38zm136.66 188.28-114.98 158.38 114.98 158.41 114.98-158.41-114.98-158.38z" fill="#ad5211"/>
<path d="m5725.7 599.56-114.98 158.38 114.98 158.41 43.641-160.63z" fill="#b7621e"/>
<path d="m5725.7 599.56v316.78l114.98-158.41-114.98-158.38zm136.66 188.28-114.98 158.38 114.98 158.38 114.98-158.38-114.98-158.38z" fill="#ad5211"/>
</g>
<g transform="matrix(.30902 .95106 -.95106 .30902 5955.1 -5456.1)">
<path d="m5346.6 309.16c-49.255 0.37044-99.849 10.671-149.59 35.719-203.99 102.71-274.58 278.59-296.59 356.28l825.28 1136 286.34-861.03-286.34-504.69s-175.21-161.21-374.31-162.28c-1.5859-9e-3 -3.1923-0.012-4.7812 0z" fill="#d9a954"/>
<path d="m6100 309.16c-199.1 1.0756-374.31 162.28-374.31 162.28v1365.7l825.28-1136c-22.006-77.687-92.572-253.57-296.56-356.28-51.349-25.856-103.65-35.993-154.41-35.719z" fill="#dd9948"/>
<path d="m5452.4 976.16-114.98 158.37 114.98 158.41 114.98-158.41-114.98-158.37zm136.66 188.28-114.98 158.38 114.98 158.38 114.98-158.38-114.98-158.38z" fill="#b7621e"/>
<path d="m5999.1 976.12-114.98 158.38 114.98 158.38 114.98-158.38-114.98-158.38z" fill="#ad5211"/>
<path d="m5589.1 787.84-114.98 158.41 114.98 158.38 114.98-158.38-114.98-158.41z" fill="#b7621e"/>
<path d="m6135.7 787.81-114.98 158.41 114.98 158.38 114.98-158.38-114.98-158.41z" fill="#ad5211"/>
<path d="m5179 599.59-114.98 158.41 114.98 158.38 114.98-158.38-114.98-158.41zm136.66 188.28-114.98 158.38 114.98 158.41 114.98-158.41-114.98-158.38z" fill="#b7621e"/>
<path d="m6272.4 599.53-114.98 158.38 114.98 158.41 114.98-158.41-114.98-158.38z" fill="#ad5211"/>
<path d="m5885.7 443.47c-36.47 20.497-69.433 45.624-98.27 71l-40.066 55.188 114.98 158.38 114.98-158.38-91.617-126.19zm113.34 156.09-114.98 158.38 114.98 158.38 114.98-158.38-114.98-158.38z" fill="#ad5211"/>
<path d="m5315.7 411.31-114.98 158.38 114.98 158.38 114.98-158.38-114.98-158.38zm136.66 188.25-114.98 158.41 114.98 158.38 114.98-158.38-114.98-158.41z" fill="#b7621e"/>
<path d="m6048.1 396.56c-46.701 0.46969-90.5 12.416-130.7 30.781l81.623 112.41 101.01-139.12c-6.1144-0.9423-12.321-1.7581-18.616-2.4375-9.7057-1.0475-19.31-1.5693-28.789-1.625-1.5125-9e-3 -3.0281-0.0152-4.5346 0zm87.62 14.688-114.98 158.41 114.98 158.38 114.98-158.38-114.98-158.41z" fill="#ad5211"/>
<path d="m5398.8 396.56c-9.4783 0.0558-19.083 0.57752-28.789 1.625-6.3151 0.68158-12.542 1.4914-18.675 2.4375l101.01 139.16 81.623-112.44c-41.474-18.942-86.795-31.066-135.17-30.781zm166.89 46.906-91.617 126.22 114.98 158.38 114.98-158.38-40.125-55.312c-28.819-25.356-61.773-50.427-98.21-70.906z" fill="#b7621e"/>
<path d="m5725.7 1352.7-114.98 158.41 114.98 158.38 34.095-175.18z" fill="#b7621e"/>
<path d="m5725.7 1352.7v316.78l114.98-158.38-114.98-158.41z" fill="#ad5211"/>
<path d="m5725.7 976.12-114.98 158.38 114.98 158.41 40.914-165.76z" fill="#b7621e"/>
<path d="m5725.7 976.12v316.78l114.98-158.41-114.98-158.38zm136.66 188.28-114.98 158.38 114.98 158.41 114.98-158.41-114.98-158.38z" fill="#ad5211"/>
<path d="m5725.7 599.56-114.98 158.38 114.98 158.41 43.641-160.63z" fill="#b7621e"/>
<path d="m5725.7 599.56v316.78l114.98-158.41-114.98-158.38zm136.66 188.28-114.98 158.38 114.98 158.38 114.98-158.38-114.98-158.38z" fill="#ad5211"/>
</g>
</g>
</g>
<g>
<path d="m3461.5 1227.2c-88.242-58.334-231.77 3.2996-320.59 137.65-67.778 102.53-51.193 232.92 37.049 291.26 88.242 58.334 214.71 22.508 282.49-80.019 88.817-134.35 89.292-290.56 1.0503-348.89z" color="#000000" fill-opacity=".15686"/>
<path d="m3124.3 796.61c-29.527 101.58 71.918 220.36 226.57 265.31 118.02 34.307 237.63-20.22 267.15-121.8 29.527-101.58-42.21-211.72-160.23-246.03-154.65-44.956-303.97 0.9356-333.49 102.51z" color="#000000" fill-opacity=".15686"/>
<path d="m3463.5 1164c-88.242-58.334-231.77 3.2996-320.59 137.65-67.778 102.53-51.193 232.92 37.049 291.26 88.242 58.334 214.71 22.508 282.49-80.019 88.817-134.35 89.292-290.56 1.0503-348.89z" color="#000000" fill="#e6a97f"/>
<path d="m3126.3 733.41c-29.527 101.58 71.918 220.36 226.57 265.32 118.02 34.307 237.63-20.22 267.15-121.8 29.527-101.58-42.21-211.72-160.23-246.03-154.65-44.956-303.97 0.93558-333.49 102.51z" color="#000000" fill="#e6a97f"/>
</g>
<g>
<path transform="matrix(1.043 0 0 1.2008 -63.35 -395.97)" d="m901.06 696.29a320.22 320.22 0 1 1-640.44-1e-5" color="#000000" fill-opacity=".15686"/>
<g>
<path transform="matrix(1.043 0 0 1.043 -63.35 -286.03)" d="m901.06 696.29a320.22 320.22 0 1 1-640.44 0 320.22 320.22 0 1 1 640.44 0z" color="#000000" fill="#d7d7d7"/>
<path transform="matrix(.98586 0 0 .98586 -30.189 -246.27)" d="m901.06 696.29a320.22 320.22 0 1 1-640.44 0 320.22 320.22 0 1 1 640.44 0z" color="#000000" fill="#878787"/>
<path transform="matrix(.79942 0 0 .79942 78.104 -116.46)" d="m901.06 696.29a320.22 320.22 0 1 1-640.44 0 320.22 320.22 0 1 1 640.44 0z" color="#000000" fill="#ffe5d3"/>
<path d="m542.44 124.47c-174.35 0-315.69 141.34-315.69 315.69 0 6.1029 0.15829 12.17 0.5 18.188 9.4203-165.89 146.94-297.5 315.19-297.5 168.25 0 305.74 131.61 315.16 297.5 0.34174-6.0177 0.53125-12.084 0.53125-18.188 0-174.35-141.34-315.69-315.69-315.69z" color="#000000" fill="#818181"/>
</g>
</g>
<path d="m551.38 1407-143.41 28.406-199.91 338.62 261.81 154.53 137.53-75.156 180.94-306.5-236.97-139.91z" fill-opacity=".15686"/>
<g>
<path d="m788.34 1491.3-104.53-18.412-14.032 61.443-157.78 109.58-42.124 229.04 137.53-75.156z" fill="#bb9147"/>
<path d="m551.38 1351.4-143.41 28.406 79.122 161.3 182.69-6.7692 118.56-43.031z" fill="#e1b557"/>
<rect transform="matrix(.86115 .50836 -.50836 .86115 0 0)" x="1052.8" y="980.84" width="304.01" height="393.23" color="#000000" fill="#f1d18b"/>
</g>
<g transform="translate(0 34.286)">
<path d="m2755.7 1318.4c1.3597 6.7232 3.0152 15.58 6.2377 18.198 3.2224 2.6176 5.3788-1.5711 4.9223-9.4461-0.4565-7.8743-13.477-38.772-26.859-36.197-13.382 2.5743-16.859 36.956-2.1202 95.824 9.5023 37.956 19.054 68.221 29.199 107.72 5.5899 21.762 11.36 46.325 17.403 76.521 10.925 54.598 35.625 123.35 50.78 167.66 8.4392 24.678 10.325 33.305 13.851 48.027 9.8519 41.163 29.614 154.93 61.854 214.72 32.24 59.79 42.448 64.987 46.791 64.976 4.3424-0.01 8.2863-16.262 4.0214-21.936-4.2652-5.675-14.257-23.518-36.656-103.17-5.1635-18.363-4.8296-29.562-9.8848-48.279-7.5122-27.811-20.322-63.03-27.352-88.688-8.761-31.976-17.035-60.92-24.541-83.438-17.581-52.747-22.347-91.972-43.392-150.63-21.045-58.656-28.177-95.858-43.894-142.23-15.718-46.37-22.139-56.448-28.419-89.847-6.28-33.398-5.9794-36.818-2.6528-34.898 3.326 1.9201 9.6509 9.8617 10.713 15.111z" fill-opacity=".15686"/>
<path d="m3031.7 1165.8c-0.1291 6.8581-0.1655 15.868-2.865 19.023-2.6994 3.1541-5.5736-0.5787-6.54-8.4075-0.9664-7.8281 6.2878-40.563 19.915-40.436 13.627 0.127 23.227 33.324 19.31 93.882-2.525 39.045-6.4806 70.535-9.3612 111.21-1.5872 22.412-2.8485 47.613-3.3645 78.403-0.9334 55.673-12.873 127.74-19.816 174.06-3.8659 25.793-4.1699 34.618-4.9922 49.735-2.2925 42.263-1.283 157.73-22.251 222.34s-30.076 71.558-34.349 72.329c-4.2734 0.7707-11.074-14.507-7.8989-20.856 3.1755-6.3492 9.7977-25.698 17.514-108.08 1.7788-18.992-0.5629-29.949 1.0458-49.269 2.3908-28.708 8.661-65.656 10.964-92.16 2.8706-33.03 5.8068-62.99 9.1433-86.491 7.8132-55.048 5.4512-94.491 15.61-155.97 10.159-61.483 10.487-99.361 17.614-147.8 7.1273-48.44 11.632-59.509 11.806-93.492 0.1744-33.983-0.7362-37.294-3.6634-34.807-2.9266 2.4867-7.7211 11.436-7.822 16.79z" fill-opacity=".15686"/>
<path d="m2755.7 1296.9c1.3597 6.7232 3.0152 15.58 6.2377 18.198 3.2224 2.6176 5.3788-1.5711 4.9223-9.4461-0.4565-7.8743-13.477-38.772-26.859-36.197-13.382 2.5743-16.859 36.956-2.1202 95.824 9.5023 37.956 19.054 68.221 29.199 107.72 5.5899 21.762 11.36 46.325 17.403 76.521 10.925 54.598 35.625 123.35 50.78 167.66 8.4392 24.678 10.325 33.305 13.851 48.027 9.8519 41.163 29.614 154.93 61.854 214.72 32.24 59.79 42.448 64.987 46.791 64.976 4.3424-0.01 8.2863-16.262 4.0214-21.936-4.2652-5.675-14.257-23.518-36.656-103.17-5.1635-18.363-4.8296-29.562-9.8848-48.279-7.5122-27.811-20.322-63.03-27.352-88.688-8.761-31.976-17.035-60.92-24.541-83.438-17.581-52.747-22.347-91.972-43.392-150.63-21.045-58.656-28.177-95.858-43.894-142.23-15.718-46.37-22.139-56.448-28.419-89.847-6.28-33.398-5.9794-36.818-2.6528-34.898 3.326 1.9201 9.6509 9.8617 10.713 15.111z" fill="#252012"/>
<path d="m3031.7 1144.3c-0.1291 6.8581-0.1655 15.868-2.865 19.023-2.6994 3.1541-5.5736-0.5787-6.54-8.4075-0.9664-7.8281 6.2878-40.563 19.915-40.436 13.627 0.127 23.227 33.324 19.31 93.882-2.525 39.045-6.4806 70.535-9.3612 111.21-1.5872 22.412-2.8485 47.613-3.3645 78.403-0.9334 55.673-12.873 127.74-19.816 174.06-3.8659 25.793-4.1699 34.618-4.9922 49.735-2.2925 42.263-1.283 157.73-22.251 222.34s-30.076 71.558-34.349 72.329c-4.2734 0.7707-11.074-14.507-7.8989-20.856 3.1755-6.3492 9.7977-25.698 17.514-108.08 1.7788-18.992-0.5629-29.949 1.0458-49.269 2.3908-28.708 8.661-65.656 10.964-92.16 2.8706-33.03 5.8068-62.99 9.1433-86.491 7.8132-55.048 5.4512-94.491 15.61-155.97 10.159-61.483 10.487-99.361 17.614-147.8 7.1273-48.44 11.632-59.509 11.806-93.492 0.1744-33.983-0.7362-37.294-3.6634-34.807-2.9266 2.4867-7.7211 11.436-7.822 16.79z" fill="#252012"/>
</g>
</svg>
